<?xml version="1.0" encoding="UTF-8" standalone="no"?><!-- Generator: Gravit.io --><svg xmlns="http://www.w3.org/2000/svg" xmlns:xlink="http://www.w3.org/1999/xlink" style="isolation:isolate" viewBox="0 0 1200 1200" width="1200pt" height="1200pt"><g style="isolation:isolate"><g><path d="M 203.853 218.431 L 494.147 218.431 C 497.377 218.431 500 221.054 500 224.284 L 500 706.76 C 500 709.991 497.377 712.613 494.147 712.613 L 203.853 712.613 C 200.623 712.613 198 709.991 198 706.76 L 198 224.284 C 198 221.054 200.623 218.431 203.853 218.431 Z" style="stroke:none;fill:#FFFFFF;stroke-miterlimit:10;"/><path d="M 203.853 218.431 L 494.147 218.431 C 497.377 218.431 500 221.054 500 224.284 L 500 706.76 C 500 709.991 497.377 712.613 494.147 712.613 L 203.853 712.613 C 200.623 712.613 198 709.991 198 706.76 L 198 224.284 C 198 221.054 200.623 218.431 203.853 218.431 Z" style="fill:none;stroke:#000000;stroke-width:1;stroke-linecap:square;stroke-miterlimit:2;"/><g><path d=" M 385.614 431.479 C 400.706 420.258 410.498 402.294 410.498 382.06 C 410.498 362.456 401.305 344.982 386.978 333.74 L 386.978 333.74 L 311.022 333.74 C 296.695 344.982 287.502 362.456 287.502 382.06 C 287.502 402.294 297.294 420.258 312.386 431.479 L 385.614 431.479 L 385.614 431.479 Z " fill="rgb(255,255,255)" vector-effect="non-scaling-stroke" stroke-width="1" stroke="rgb(0,0,0)" stroke-linejoin="miter" stroke-linecap="square" stroke-miterlimit="3"/><rect x="323.193" y="346.919" width="6.589" height="30.749" transform="matrix(1,0,0,1,0,0)" fill="rgb(0,0,0)" vector-effect="non-scaling-stroke" stroke-width="1" stroke="rgb(0,0,0)" stroke-linejoin="miter" stroke-linecap="square" stroke-miterlimit="2"/><rect x="367.12" y="346.919" width="6.589" height="30.749" transform="matrix(1,0,0,1,0,0)" fill="rgb(0,0,0)" vector-effect="non-scaling-stroke" stroke-width="1" stroke="rgb(0,0,0)" stroke-linejoin="miter" stroke-linecap="square" stroke-miterlimit="2"/><path d=" M 358.746 409.201 C 358.746 403.313 354.379 398.533 349 398.533 C 343.621 398.533 339.254 403.313 339.254 409.201 L 339.254 417.202 L 358.746 417.202 L 358.746 409.201 L 358.746 409.201 Z " fill="rgb(0,0,0)" vector-effect="non-scaling-stroke" stroke-width="1" stroke="rgb(0,0,0)" stroke-linejoin="miter" stroke-linecap="butt" stroke-miterlimit="3"/></g><g><path d=" M 385.614 595.108 C 400.706 583.887 410.498 565.923 410.498 545.69 C 410.498 526.085 401.305 508.611 386.978 497.37 L 386.978 497.37 L 311.022 497.37 C 296.695 508.611 287.502 526.085 287.502 545.69 C 287.502 565.923 297.294 583.887 312.386 595.108 L 385.614 595.108 L 385.614 595.108 Z " fill="rgb(255,255,255)" vector-effect="non-scaling-stroke" stroke-width="1" stroke="rgb(0,0,0)" stroke-linejoin="miter" stroke-linecap="square" stroke-miterlimit="3"/><rect x="323.193" y="510.548" width="6.589" height="30.749" transform="matrix(1,0,0,1,0,0)" fill="rgb(0,0,0)" vector-effect="non-scaling-stroke" stroke-width="1" stroke="rgb(0,0,0)" stroke-linejoin="miter" stroke-linecap="square" stroke-miterlimit="2"/><rect x="367.12" y="510.548" width="6.589" height="30.749" transform="matrix(1,0,0,1,0,0)" fill="rgb(0,0,0)" vector-effect="non-scaling-stroke" stroke-width="1" stroke="rgb(0,0,0)" stroke-linejoin="miter" stroke-linecap="square" stroke-miterlimit="2"/><path d=" M 358.746 572.83 C 358.746 566.942 354.379 562.162 349 562.162 C 343.621 562.162 339.254 566.942 339.254 572.83 L 339.254 580.831 L 358.746 580.831 L 358.746 572.83 L 358.746 572.83 Z " fill="rgb(0,0,0)" vector-effect="non-scaling-stroke" stroke-width="1" stroke="rgb(0,0,0)" stroke-linejoin="miter" stroke-linecap="butt" stroke-miterlimit="3"/></g><circle vector-effect="non-scaling-stroke" cx="349.00000000000034" cy="465.52226760270304" r="11.805454545454552" fill="rgb(255,255,255)" stroke-width="1" stroke="rgb(0,0,0)" stroke-linejoin="miter" stroke-linecap="square" stroke-miterlimit="3"/><circle vector-effect="non-scaling-stroke" cx="349.00000000000034" cy="465.52226760270304" r="11.805454545454552" fill="rgb(255,255,255)" stroke-width="1" stroke="rgb(0,0,0)" stroke-linejoin="miter" stroke-linecap="square" stroke-miterlimit="3"/><line x1="346.255" y1="454.54" x2="346.255" y2="476.504" vector-effect="non-scaling-stroke" stroke-width="1" stroke="rgb(0,0,0)" stroke-linejoin="miter" stroke-linecap="square" stroke-miterlimit="3"/><line x1="351.745" y1="454.54" x2="351.745" y2="476.504" vector-effect="non-scaling-stroke" stroke-width="1" stroke="rgb(0,0,0)" stroke-linejoin="miter" stroke-linecap="square" stroke-miterlimit="3"/></g></g><g style="isolation:isolate"><g><path d="M 630.645 12.613 L 953.355 12.613 C 976.34 12.613 995 31.273 995 54.258 L 995 847.239 C 995 870.223 976.34 888.883 953.355 888.883 L 630.645 888.883 C 607.66 888.883 589 870.223 589 847.239 L 589 54.258 C 589 31.273 607.66 12.613 630.645 12.613 Z" style="stroke:none;fill:#EFAD3D;stroke-linecap:square;stroke-miterlimit:2;"/><path d="M 654.331 45.532 L 929.669 45.532 C 949.892 45.532 966.311 61.951 966.311 82.174 L 966.311 798.944 C 966.311 819.167 949.892 835.586 929.669 835.586 L 654.331 835.586 C 634.108 835.586 617.689 819.167 617.689 798.944 L 617.689 82.174 C 617.689 61.951 634.108 45.532 654.331 45.532 Z" style="stroke:none;fill:#7B756B;stroke-linecap:square;stroke-miterlimit:2;"/><rect x="643.722" y="73.748" width="296.555" height="211.622" transform="matrix(1,0,0,1,0,0)" fill="rgb(235,235,235)"/><circle vector-effect="non-scaling-stroke" cx="792.0000000000005" cy="468.27656735700253" r="148.2776412776409" fill="rgb(123,117,107)" stroke-width="1" stroke="rgb(0,0,0)" stroke-linejoin="miter" stroke-linecap="square" stroke-miterlimit="3"/><path d=" M 742.479 203.096 L 742.479 214.653 L 725.87 214.653 L 725.87 240.371 L 713.7 240.371 L 713.7 214.653 L 659.279 214.653 L 659.279 203.555 L 712.398 127.855 L 725.87 127.855 L 725.87 203.096 L 742.479 203.096 L 742.479 203.096 Z  M 671.985 203.096 L 713.7 203.096 L 713.7 165.896 L 713.7 165.896 Q 713.7 154.951 714.465 141.174 L 714.465 141.174 L 713.853 141.174 L 713.853 141.174 Q 710.179 148.522 706.964 153.344 L 706.964 153.344 L 671.985 203.096 L 671.985 203.096 Z  M 827.44 184.266 L 827.44 184.266 L 827.44 184.266 Q 827.44 213.276 818.293 227.589 L 818.293 227.589 L 818.293 227.589 Q 809.147 241.902 790.318 241.902 L 790.318 241.902 L 790.318 241.902 Q 772.254 241.902 762.839 227.244 L 762.839 227.244 L 762.839 227.244 Q 753.425 212.587 753.425 184.266 L 753.425 184.266 L 753.425 184.266 Q 753.425 155.028 762.533 140.867 L 762.533 140.867 L 762.533 140.867 Q 771.642 126.707 790.318 126.707 L 790.318 126.707 L 790.318 126.707 Q 808.534 126.707 817.987 141.48 L 817.987 141.48 L 817.987 141.48 Q 827.44 156.252 827.44 184.266 Z  M 766.284 184.266 L 766.284 184.266 L 766.284 184.266 Q 766.284 208.683 772.024 219.82 L 772.024 219.82 L 772.024 219.82 Q 777.765 230.957 790.318 230.957 L 790.318 230.957 L 790.318 230.957 Q 803.023 230.957 808.726 219.667 L 808.726 219.667 L 808.726 219.667 Q 814.428 208.377 814.428 184.266 L 814.428 184.266 L 814.428 184.266 Q 814.428 160.156 808.726 148.943 L 808.726 148.943 L 808.726 148.943 Q 803.023 137.729 790.318 137.729 L 790.318 137.729 L 790.318 137.729 Q 777.765 137.729 772.024 148.789 L 772.024 148.789 L 772.024 148.789 Q 766.284 159.85 766.284 184.266 Z  M 921.739 203.096 L 921.739 214.653 L 905.13 214.653 L 905.13 240.371 L 892.96 240.371 L 892.96 214.653 L 838.539 214.653 L 838.539 203.555 L 891.658 127.855 L 905.13 127.855 L 905.13 203.096 L 921.739 203.096 L 921.739 203.096 Z  M 851.245 203.096 L 892.96 203.096 L 892.96 165.896 L 892.96 165.896 Q 892.96 154.951 893.725 141.174 L 893.725 141.174 L 893.113 141.174 L 893.113 141.174 Q 889.439 148.522 886.224 153.344 L 886.224 153.344 L 851.245 203.096 L 851.245 203.096 Z " fill="rgb(0,0,0)"/><path d="M 792 351.829 L 792 351.829 C 802.815 351.829 811.595 360.609 811.595 371.423 L 811.595 565.13 C 811.595 575.944 802.815 584.724 792 584.724 L 792 584.724 C 781.185 584.724 772.405 575.944 772.405 565.13 L 772.405 371.423 C 772.405 360.609 781.185 351.829 792 351.829 Z" style="stroke:none;fill:#686560;stroke-linecap:square;stroke-miterlimit:2;"/><path d="M 792 351.829 L 792 351.829 C 802.815 351.829 811.595 360.609 811.595 371.423 L 811.595 565.13 C 811.595 575.944 802.815 584.724 792 584.724 L 792 584.724 C 781.185 584.724 772.405 575.944 772.405 565.13 L 772.405 371.423 C 772.405 360.609 781.185 351.829 792 351.829 Z" style="fill:none;stroke:#000000;stroke-width:1;stroke-linecap:square;stroke-miterlimit:2;"/></g></g><g style="isolation:isolate"><g><path d=" M 373.786 557.756 L 373.786 527.151 C 373.786 526.854 373.545 526.613 373.248 526.613 L 369.323 526.613 L 369.323 526.613 L 369.323 526.613 C 369.027 526.613 368.786 526.854 368.786 527.151 L 368.786 557.756 L 364.857 557.756 Q 356.721 582.098 356.286 609.185 C 356.141 618.214 356.286 614.185 356.286 615.613 Q 356.286 617.756 356.286 617.756 L 352 619.899 L 356.286 624.185 L 356.286 639.185 L 364.857 639.185 L 364.857 639.185 L 377.714 639.185 L 377.714 639.185 L 386.286 639.185 L 386.286 624.185 L 390.571 619.899 L 386.286 617.756 Q 386.286 617.756 386.286 615.613 C 386.286 614.185 386.431 618.214 386.286 609.185 Q 385.85 582.098 377.714 557.756 L 373.786 557.756 L 373.786 557.756 Z  M 356.286 639.185 L 386.286 639.185 L 386.286 868.47 L 356.286 868.47 L 356.286 639.185 L 356.286 639.185 Z  M 356.286 868.47 L 376.571 868.47 L 386.286 868.47 L 383.489 888.748 L 377.714 930.613 L 364.857 930.613 L 356.286 868.47 Z " fill-rule="evenodd" fill="rgb(255,0,0)"/><path d=" M 342.286 868.47 L 342.286 639.185 L 342.286 639.185 L 342.286 624.185 L 346.571 619.899 L 342.286 617.756 Q 342.286 617.756 342.286 615.613 C 342.286 614.185 342.431 618.214 342.286 609.185 Q 341.85 582.098 333.714 557.756 L 333.714 557.756 L 333.714 557.756 L 333.714 557.756 L 333.714 557.756 L 333.714 639.185 L 333.714 639.185 L 333.714 557.756 L 333.714 557.756 L 329.786 557.756 L 329.786 557.756 L 329.786 527.571 C 329.786 527.042 329.357 526.613 328.828 526.613 L 325.744 526.613 L 325.744 526.613 L 325.744 526.613 C 325.215 526.613 324.786 527.042 324.786 527.571 L 324.786 557.756 L 320.857 557.756 Q 312.721 582.098 312.286 609.185 C 312.141 618.214 312.286 614.185 312.286 615.613 Q 312.286 617.756 312.286 617.756 L 308 619.899 L 312.286 624.185 L 312.286 639.185 L 312.286 639.185 L 312.286 868.47 L 312.286 868.47 L 320.857 930.613 L 333.714 930.613 L 342.286 868.47 L 342.286 868.47 Z " fill-rule="evenodd" fill="rgb(0,0,0)"/><path d=" M 371.571 930.613 Q 394.411 1219.331 565.911 1114.831 C 737.411 1010.331 748.571 1051.613 748.571 916.613 Q 748.571 781.613 748.571 766.613" fill="none" vector-effect="non-scaling-stroke" stroke-width="8" stroke="rgb(255,0,0)" stroke-linejoin="miter" stroke-linecap="square" stroke-miterlimit="3"/><path d=" M 327.571 927.113 Q 376.411 1267.331 547.911 1162.831 C 719.411 1058.331 835.571 1076.613 835.571 941.613 Q 835.571 806.613 835.571 771.613" fill="none" vector-effect="non-scaling-stroke" stroke-width="8" stroke="rgb(0,0,0)" stroke-linejoin="miter" stroke-linecap="square" stroke-miterlimit="3"/><path d=" M 732.788 726.796 L 754.17 726.796 L 764.409 726.796 L 761.461 743.72 L 755.375 778.66 L 741.822 778.66 L 732.788 726.796 Z " fill="rgb(255,0,0)"/><ellipse vector-effect="non-scaling-stroke" cx="748.071428571429" cy="716.1900370267504" rx="19.5" ry="27.529647181094788" fill="rgb(255,0,0)" stroke-width="1" stroke="rgb(236,18,18)" stroke-linejoin="miter" stroke-linecap="square" stroke-miterlimit="3"/><path d=" M 819.038 726.796 L 840.42 726.796 L 850.659 726.796 L 847.711 743.72 L 841.625 778.66 L 828.072 778.66 L 819.038 726.796 Z " fill="rgb(0,0,0)"/><ellipse vector-effect="non-scaling-stroke" cx="834.3214285714292" cy="716.1900381178184" rx="19.5" ry="27.529647181094788" fill="rgb(0,0,0)" stroke-width="1" stroke="rgb(81,74,74)" stroke-linejoin="miter" stroke-linecap="square" stroke-miterlimit="3"/></g></g></svg>