<?xml version="1.0" encoding="UTF-8" standalone="no"?><!-- Generator: Gravit.io --><svg xmlns="http://www.w3.org/2000/svg" xmlns:xlink="http://www.w3.org/1999/xlink" style="isolation:isolate" viewBox="0 0 500 100" width="500pt" height="100pt"><path d=" M 83.302 61.76 L 83.302 61.76 Q 82.21 67.892 78.556 72.974 L 78.556 72.974 L 78.556 72.974 Q 74.902 78.056 68.98 81.08 L 68.98 81.08 L 68.98 81.08 Q 63.058 84.104 55.33 84.104 L 55.33 84.104 L 55.33 84.104 Q 46.594 84.104 39.874 80.366 L 39.874 80.366 L 39.874 80.366 Q 33.154 76.628 29.416 69.572 L 29.416 69.572 L 29.416 69.572 Q 25.678 62.516 25.678 52.772 L 25.678 52.772 L 25.678 52.772 Q 25.678 43.028 29.416 35.972 L 29.416 35.972 L 29.416 35.972 Q 33.154 28.916 39.874 25.178 L 39.874 25.178 L 39.874 25.178 Q 46.594 21.44 55.33 21.44 L 55.33 21.44 L 55.33 21.44 Q 62.47 21.44 68.182 24.128 L 68.182 24.128 L 68.182 24.128 Q 73.894 26.816 77.59 31.142 L 77.59 31.142 L 77.59 31.142 Q 81.286 35.468 82.63 40.508 L 82.63 40.508 L 68.434 42.524 L 68.434 42.524 Q 67.006 38.24 63.604 35.552 L 63.604 35.552 L 63.604 35.552 Q 60.202 32.864 55.33 32.864 L 55.33 32.864 L 55.33 32.864 Q 48.694 32.864 44.452 37.82 L 44.452 37.82 L 44.452 37.82 Q 40.21 42.776 40.21 52.772 L 40.21 52.772 L 40.21 52.772 Q 40.21 62.768 44.452 67.724 L 44.452 67.724 L 44.452 67.724 Q 48.694 72.68 55.33 72.68 L 55.33 72.68 L 55.33 72.68 Q 60.874 72.68 64.36 69.32 L 64.36 69.32 L 64.36 69.32 Q 67.846 65.96 68.938 60.332 L 68.938 60.332 L 83.302 61.76 L 83.302 61.76 Z  M 140.842 22.784 L 140.842 82.76 L 126.562 82.76 L 126.562 58.232 L 101.95 58.232 L 101.95 82.76 L 87.67 82.76 L 87.67 22.784 L 101.95 22.784 L 101.95 46.556 L 126.562 46.556 L 126.562 22.784 L 140.842 22.784 L 140.842 22.784 Z  M 186.706 69.32 L 163.27 69.32 L 158.818 82.76 L 143.782 82.76 L 165.622 22.784 L 184.69 22.784 L 206.53 82.76 L 191.242 82.76 L 186.706 69.32 L 186.706 69.32 Z  M 183.178 58.904 L 175.114 34.712 L 174.778 34.712 L 166.714 58.904 L 183.178 58.904 L 183.178 58.904 Z  M 274.066 22.784 L 274.066 82.76 L 260.626 82.76 L 260.626 39.584 L 260.29 39.584 L 246.766 82.76 L 236.434 82.76 L 222.91 39.584 L 222.574 39.584 L 222.574 82.76 L 209.47 82.76 L 209.47 22.784 L 230.47 22.784 L 241.642 61.508 L 241.978 61.508 L 253.15 22.784 L 274.066 22.784 L 274.066 22.784 Z  M 308.674 22.784 L 308.674 22.784 Q 319.174 22.784 325.012 28.034 L 325.012 28.034 L 325.012 28.034 Q 330.85 33.284 330.85 42.524 L 330.85 42.524 L 330.85 42.524 Q 330.85 51.848 325.012 57.098 L 325.012 57.098 L 325.012 57.098 Q 319.174 62.348 308.674 62.348 L 308.674 62.348 L 294.226 62.348 L 294.226 82.76 L 279.946 82.76 L 279.946 22.784 L 308.674 22.784 L 308.674 22.784 Z  M 306.154 51.26 L 306.154 51.26 Q 311.11 51.26 313.672 48.95 L 313.672 48.95 L 313.672 48.95 Q 316.234 46.64 316.234 42.524 L 316.234 42.524 L 316.234 42.524 Q 316.234 38.408 313.63 36.14 L 313.63 36.14 L 313.63 36.14 Q 311.026 33.872 306.154 33.872 L 306.154 33.872 L 294.226 33.872 L 294.226 51.26 L 306.154 51.26 L 306.154 51.26 Z  M 335.638 82.76 L 335.638 22.784 L 349.918 22.784 L 349.918 82.76 L 335.638 82.76 L 335.638 82.76 Z  M 384.946 21.44 L 384.946 21.44 Q 393.682 21.44 400.486 25.178 L 400.486 25.178 L 400.486 25.178 Q 407.29 28.916 411.112 35.972 L 411.112 35.972 L 411.112 35.972 Q 414.934 43.028 414.934 52.772 L 414.934 52.772 L 414.934 52.772 Q 414.934 62.516 411.112 69.572 L 411.112 69.572 L 411.112 69.572 Q 407.29 76.628 400.486 80.366 L 400.486 80.366 L 400.486 80.366 Q 393.682 84.104 384.946 84.104 L 384.946 84.104 L 384.946 84.104 Q 376.126 84.104 369.322 80.366 L 369.322 80.366 L 369.322 80.366 Q 362.518 76.628 358.696 69.572 L 358.696 69.572 L 358.696 69.572 Q 354.874 62.516 354.874 52.772 L 354.874 52.772 L 354.874 52.772 Q 354.874 43.028 358.696 35.972 L 358.696 35.972 L 358.696 35.972 Q 362.518 28.916 369.322 25.178 L 369.322 25.178 L 369.322 25.178 Q 376.126 21.44 384.946 21.44 L 384.946 21.44 L 384.946 21.44 Z  M 384.946 72.68 L 384.946 72.68 Q 391.834 72.68 396.118 67.724 L 396.118 67.724 L 396.118 67.724 Q 400.402 62.768 400.402 52.772 L 400.402 52.772 L 400.402 52.772 Q 400.402 42.776 396.118 37.82 L 396.118 37.82 L 396.118 37.82 Q 391.834 32.864 384.946 32.864 L 384.946 32.864 L 384.946 32.864 Q 377.974 32.864 373.69 37.82 L 373.69 37.82 L 373.69 37.82 Q 369.406 42.776 369.406 52.772 L 369.406 52.772 L 369.406 52.772 Q 369.406 62.768 373.69 67.724 L 373.69 67.724 L 373.69 67.724 Q 377.974 72.68 384.946 72.68 L 384.946 72.68 L 384.946 72.68 Z  M 473.314 82.76 L 457.438 82.76 L 433.246 41.768 L 432.91 41.768 L 432.91 82.76 L 419.806 82.76 L 419.806 22.784 L 436.102 22.784 L 459.874 63.02 L 460.21 63.02 L 460.21 22.784 L 473.314 22.784 L 473.314 82.76 L 473.314 82.76 Z " fill="rgb(51,51,51)"/></svg>