<?xml version="1.0" encoding="UTF-8" standalone="no"?><!-- Generator: Gravit.io --><svg xmlns="http://www.w3.org/2000/svg" xmlns:xlink="http://www.w3.org/1999/xlink" style="isolation:isolate" viewBox="0 0 500 150" width="500pt" height="150pt"><path d=" M 83.302 69.26 L 83.302 69.26 Q 82.21 75.392 78.556 80.474 L 78.556 80.474 L 78.556 80.474 Q 74.902 85.556 68.98 88.58 L 68.98 88.58 L 68.98 88.58 Q 63.058 91.604 55.33 91.604 L 55.33 91.604 L 55.33 91.604 Q 46.594 91.604 39.874 87.866 L 39.874 87.866 L 39.874 87.866 Q 33.154 84.128 29.416 77.072 L 29.416 77.072 L 29.416 77.072 Q 25.678 70.016 25.678 60.272 L 25.678 60.272 L 25.678 60.272 Q 25.678 50.528 29.416 43.472 L 29.416 43.472 L 29.416 43.472 Q 33.154 36.416 39.874 32.678 L 39.874 32.678 L 39.874 32.678 Q 46.594 28.94 55.33 28.94 L 55.33 28.94 L 55.33 28.94 Q 62.47 28.94 68.182 31.628 L 68.182 31.628 L 68.182 31.628 Q 73.894 34.316 77.59 38.642 L 77.59 38.642 L 77.59 38.642 Q 81.286 42.968 82.63 48.008 L 82.63 48.008 L 68.434 50.024 L 68.434 50.024 Q 67.006 45.74 63.604 43.052 L 63.604 43.052 L 63.604 43.052 Q 60.202 40.364 55.33 40.364 L 55.33 40.364 L 55.33 40.364 Q 48.694 40.364 44.452 45.32 L 44.452 45.32 L 44.452 45.32 Q 40.21 50.276 40.21 60.272 L 40.21 60.272 L 40.21 60.272 Q 40.21 70.268 44.452 75.224 L 44.452 75.224 L 44.452 75.224 Q 48.694 80.18 55.33 80.18 L 55.33 80.18 L 55.33 80.18 Q 60.874 80.18 64.36 76.82 L 64.36 76.82 L 64.36 76.82 Q 67.846 73.46 68.938 67.832 L 68.938 67.832 L 83.302 69.26 L 83.302 69.26 Z  M 140.842 30.284 L 140.842 90.26 L 126.562 90.26 L 126.562 65.732 L 101.95 65.732 L 101.95 90.26 L 87.67 90.26 L 87.67 30.284 L 101.95 30.284 L 101.95 54.056 L 126.562 54.056 L 126.562 30.284 L 140.842 30.284 L 140.842 30.284 Z  M 186.706 76.82 L 163.27 76.82 L 158.818 90.26 L 143.782 90.26 L 165.622 30.284 L 184.69 30.284 L 206.53 90.26 L 191.242 90.26 L 186.706 76.82 L 186.706 76.82 Z  M 183.178 66.404 L 175.114 42.212 L 174.778 42.212 L 166.714 66.404 L 183.178 66.404 L 183.178 66.404 Z  M 274.066 30.284 L 274.066 90.26 L 260.626 90.26 L 260.626 47.084 L 260.29 47.084 L 246.766 90.26 L 236.434 90.26 L 222.91 47.084 L 222.574 47.084 L 222.574 90.26 L 209.47 90.26 L 209.47 30.284 L 230.47 30.284 L 241.642 69.008 L 241.978 69.008 L 253.15 30.284 L 274.066 30.284 L 274.066 30.284 Z  M 308.674 30.284 L 308.674 30.284 Q 319.174 30.284 325.012 35.534 L 325.012 35.534 L 325.012 35.534 Q 330.85 40.784 330.85 50.024 L 330.85 50.024 L 330.85 50.024 Q 330.85 59.348 325.012 64.598 L 325.012 64.598 L 325.012 64.598 Q 319.174 69.848 308.674 69.848 L 308.674 69.848 L 294.226 69.848 L 294.226 90.26 L 279.946 90.26 L 279.946 30.284 L 308.674 30.284 L 308.674 30.284 Z  M 306.154 58.76 L 306.154 58.76 Q 311.11 58.76 313.672 56.45 L 313.672 56.45 L 313.672 56.45 Q 316.234 54.14 316.234 50.024 L 316.234 50.024 L 316.234 50.024 Q 316.234 45.908 313.63 43.64 L 313.63 43.64 L 313.63 43.64 Q 311.026 41.372 306.154 41.372 L 306.154 41.372 L 294.226 41.372 L 294.226 58.76 L 306.154 58.76 L 306.154 58.76 Z  M 335.638 90.26 L 335.638 30.284 L 349.918 30.284 L 349.918 90.26 L 335.638 90.26 L 335.638 90.26 Z  M 384.946 28.94 L 384.946 28.94 Q 393.682 28.94 400.486 32.678 L 400.486 32.678 L 400.486 32.678 Q 407.29 36.416 411.112 43.472 L 411.112 43.472 L 411.112 43.472 Q 414.934 50.528 414.934 60.272 L 414.934 60.272 L 414.934 60.272 Q 414.934 70.016 411.112 77.072 L 411.112 77.072 L 411.112 77.072 Q 407.29 84.128 400.486 87.866 L 400.486 87.866 L 400.486 87.866 Q 393.682 91.604 384.946 91.604 L 384.946 91.604 L 384.946 91.604 Q 376.126 91.604 369.322 87.866 L 369.322 87.866 L 369.322 87.866 Q 362.518 84.128 358.696 77.072 L 358.696 77.072 L 358.696 77.072 Q 354.874 70.016 354.874 60.272 L 354.874 60.272 L 354.874 60.272 Q 354.874 50.528 358.696 43.472 L 358.696 43.472 L 358.696 43.472 Q 362.518 36.416 369.322 32.678 L 369.322 32.678 L 369.322 32.678 Q 376.126 28.94 384.946 28.94 L 384.946 28.94 L 384.946 28.94 Z  M 384.946 80.18 L 384.946 80.18 Q 391.834 80.18 396.118 75.224 L 396.118 75.224 L 396.118 75.224 Q 400.402 70.268 400.402 60.272 L 400.402 60.272 L 400.402 60.272 Q 400.402 50.276 396.118 45.32 L 396.118 45.32 L 396.118 45.32 Q 391.834 40.364 384.946 40.364 L 384.946 40.364 L 384.946 40.364 Q 377.974 40.364 373.69 45.32 L 373.69 45.32 L 373.69 45.32 Q 369.406 50.276 369.406 60.272 L 369.406 60.272 L 369.406 60.272 Q 369.406 70.268 373.69 75.224 L 373.69 75.224 L 373.69 75.224 Q 377.974 80.18 384.946 80.18 L 384.946 80.18 L 384.946 80.18 Z  M 473.314 90.26 L 457.438 90.26 L 433.246 49.268 L 432.91 49.268 L 432.91 90.26 L 419.806 90.26 L 419.806 30.284 L 436.102 30.284 L 459.874 70.52 L 460.21 70.52 L 460.21 30.284 L 473.314 30.284 L 473.314 90.26 L 473.314 90.26 Z " fill="rgb(51,51,51)"/><rect x="27" y="105" width="448" height="30" transform="matrix(1,0,0,1,0,0)" fill="rgb(3,43,223)"/><path d=" M 412.58 128.58 L 412.58 112.872 L 415.374 112.872 L 415.374 126.204 L 423.822 126.204 L 423.822 128.58 L 412.58 128.58 L 412.58 128.58 Z  M 428.12 128.58 L 428.12 112.872 L 430.914 112.872 L 430.914 126.204 L 439.362 126.204 L 439.362 128.58 L 428.12 128.58 L 428.12 128.58 Z  M 457.63 123.388 L 457.63 123.388 Q 457.344 124.818 456.453 126.083 L 456.453 126.083 L 456.453 126.083 Q 455.562 127.348 454.088 128.14 L 454.088 128.14 L 454.088 128.14 Q 452.614 128.932 450.656 128.932 L 450.656 128.932 L 450.656 128.932 Q 448.456 128.932 446.751 127.931 L 446.751 127.931 L 446.751 127.931 Q 445.046 126.93 444.1 125.071 L 444.1 125.071 L 444.1 125.071 Q 443.154 123.212 443.154 120.704 L 443.154 120.704 L 443.154 120.704 Q 443.154 118.218 444.1 116.359 L 444.1 116.359 L 444.1 116.359 Q 445.046 114.5 446.751 113.51 L 446.751 113.51 L 446.751 113.51 Q 448.456 112.52 450.656 112.52 L 450.656 112.52 L 450.656 112.52 Q 452.416 112.52 453.802 113.18 L 453.802 113.18 L 453.802 113.18 Q 455.188 113.84 456.079 114.874 L 456.079 114.874 L 456.079 114.874 Q 456.97 115.908 457.366 117.052 L 457.366 117.052 L 454.66 117.58 L 454.66 117.58 Q 454.198 116.37 453.164 115.589 L 453.164 115.589 L 453.164 115.589 Q 452.13 114.808 450.656 114.808 L 450.656 114.808 L 450.656 114.808 Q 448.5 114.808 447.235 116.348 L 447.235 116.348 L 447.235 116.348 Q 445.97 117.888 445.97 120.704 L 445.97 120.704 L 445.97 120.704 Q 445.97 123.542 447.235 125.093 L 447.235 125.093 L 447.235 125.093 Q 448.5 126.644 450.656 126.644 L 450.656 126.644 L 450.656 126.644 Q 452.394 126.644 453.428 125.621 L 453.428 125.621 L 453.428 125.621 Q 454.462 124.598 454.836 123.014 L 454.836 123.014 L 457.63 123.388 L 457.63 123.388 Z  M 223.65 123.388 L 223.65 123.388 Q 223.364 124.818 222.473 126.083 L 222.473 126.083 L 222.473 126.083 Q 221.582 127.348 220.108 128.14 L 220.108 128.14 L 220.108 128.14 Q 218.634 128.932 216.676 128.932 L 216.676 128.932 L 216.676 128.932 Q 214.476 128.932 212.771 127.931 L 212.771 127.931 L 212.771 127.931 Q 211.066 126.93 210.12 125.071 L 210.12 125.071 L 210.12 125.071 Q 209.174 123.212 209.174 120.704 L 209.174 120.704 L 209.174 120.704 Q 209.174 118.218 210.12 116.359 L 210.12 116.359 L 210.12 116.359 Q 211.066 114.5 212.771 113.51 L 212.771 113.51 L 212.771 113.51 Q 214.476 112.52 216.676 112.52 L 216.676 112.52 L 216.676 112.52 Q 218.436 112.52 219.822 113.18 L 219.822 113.18 L 219.822 113.18 Q 221.208 113.84 222.099 114.874 L 222.099 114.874 L 222.099 114.874 Q 222.99 115.908 223.386 117.052 L 223.386 117.052 L 220.68 117.58 L 220.68 117.58 Q 220.218 116.37 219.184 115.589 L 219.184 115.589 L 219.184 115.589 Q 218.15 114.808 216.676 114.808 L 216.676 114.808 L 216.676 114.808 Q 214.52 114.808 213.255 116.348 L 213.255 116.348 L 213.255 116.348 Q 211.99 117.888 211.99 120.704 L 211.99 120.704 L 211.99 120.704 Q 211.99 123.542 213.255 125.093 L 213.255 125.093 L 213.255 125.093 Q 214.52 126.644 216.676 126.644 L 216.676 126.644 L 216.676 126.644 Q 218.414 126.644 219.448 125.621 L 219.448 125.621 L 219.448 125.621 Q 220.482 124.598 220.856 123.014 L 220.856 123.014 L 223.65 123.388 L 223.65 123.388 Z  M 235.34 112.52 L 235.34 112.52 Q 237.584 112.52 239.3 113.51 L 239.3 113.51 L 239.3 113.51 Q 241.016 114.5 241.962 116.359 L 241.962 116.359 L 241.962 116.359 Q 242.908 118.218 242.908 120.726 L 242.908 120.726 L 242.908 120.726 Q 242.908 123.234 241.962 125.093 L 241.962 125.093 L 241.962 125.093 Q 241.016 126.952 239.3 127.942 L 239.3 127.942 L 239.3 127.942 Q 237.584 128.932 235.34 128.932 L 235.34 128.932 L 235.34 128.932 Q 233.096 128.932 231.391 127.942 L 231.391 127.942 L 231.391 127.942 Q 229.686 126.952 228.74 125.093 L 228.74 125.093 L 228.74 125.093 Q 227.794 123.234 227.794 120.726 L 227.794 120.726 L 227.794 120.726 Q 227.794 118.218 228.74 116.359 L 228.74 116.359 L 228.74 116.359 Q 229.686 114.5 231.391 113.51 L 231.391 113.51 L 231.391 113.51 Q 233.096 112.52 235.34 112.52 L 235.34 112.52 L 235.34 112.52 Z  M 235.34 126.644 L 235.34 126.644 Q 237.518 126.644 238.794 125.093 L 238.794 125.093 L 238.794 125.093 Q 240.07 123.542 240.07 120.726 L 240.07 120.726 L 240.07 120.726 Q 240.07 117.91 238.794 116.359 L 238.794 116.359 L 238.794 116.359 Q 237.518 114.808 235.34 114.808 L 235.34 114.808 L 235.34 114.808 Q 233.162 114.808 231.886 116.359 L 231.886 116.359 L 231.886 116.359 Q 230.61 117.91 230.61 120.726 L 230.61 120.726 L 230.61 120.726 Q 230.61 123.542 231.886 125.093 L 231.886 125.093 L 231.886 125.093 Q 233.162 126.644 235.34 126.644 L 235.34 126.644 L 235.34 126.644 Z  M 260.758 128.58 L 257.744 128.58 L 250.176 116.7 L 250.088 116.7 L 250.088 128.58 L 247.514 128.58 L 247.514 112.872 L 250.638 112.872 L 258.096 124.554 L 258.184 124.554 L 258.184 112.872 L 260.758 112.872 L 260.758 128.58 L 260.758 128.58 Z  M 278.19 115.248 L 272.998 115.248 L 272.998 128.58 L 270.226 128.58 L 270.226 115.248 L 265.034 115.248 L 265.034 112.872 L 278.19 112.872 L 278.19 115.248 L 278.19 115.248 Z  M 292.498 128.58 L 288.89 122.574 L 285.238 122.574 L 285.238 128.58 L 282.466 128.58 L 282.466 112.872 L 289.924 112.872 L 289.924 112.872 Q 292.542 112.872 294.005 114.17 L 294.005 114.17 L 294.005 114.17 Q 295.468 115.468 295.468 117.712 L 295.468 117.712 L 295.468 117.712 Q 295.468 119.494 294.544 120.704 L 294.544 120.704 L 294.544 120.704 Q 293.62 121.914 291.882 122.354 L 291.882 122.354 L 295.732 128.58 L 292.498 128.58 L 292.498 128.58 Z  M 285.238 120.308 L 289.528 120.308 L 289.528 120.308 Q 291.046 120.308 291.838 119.637 L 291.838 119.637 L 291.838 119.637 Q 292.63 118.966 292.63 117.712 L 292.63 117.712 L 292.63 117.712 Q 292.63 116.48 291.838 115.809 L 291.838 115.809 L 291.838 115.809 Q 291.046 115.138 289.528 115.138 L 289.528 115.138 L 285.238 115.138 L 285.238 120.308 L 285.238 120.308 Z  M 310.084 124.554 L 303.308 124.554 L 301.856 128.58 L 298.886 128.58 L 304.914 112.872 L 308.5 112.872 L 314.528 128.58 L 311.536 128.58 L 310.084 124.554 L 310.084 124.554 Z  M 309.27 122.332 L 306.718 115.314 L 306.63 115.314 L 304.1 122.332 L 309.27 122.332 L 309.27 122.332 Z  M 331.674 123.388 L 331.674 123.388 Q 331.388 124.818 330.497 126.083 L 330.497 126.083 L 330.497 126.083 Q 329.606 127.348 328.132 128.14 L 328.132 128.14 L 328.132 128.14 Q 326.658 128.932 324.7 128.932 L 324.7 128.932 L 324.7 128.932 Q 322.5 128.932 320.795 127.931 L 320.795 127.931 L 320.795 127.931 Q 319.09 126.93 318.144 125.071 L 318.144 125.071 L 318.144 125.071 Q 317.198 123.212 317.198 120.704 L 317.198 120.704 L 317.198 120.704 Q 317.198 118.218 318.144 116.359 L 318.144 116.359 L 318.144 116.359 Q 319.09 114.5 320.795 113.51 L 320.795 113.51 L 320.795 113.51 Q 322.5 112.52 324.7 112.52 L 324.7 112.52 L 324.7 112.52 Q 326.46 112.52 327.846 113.18 L 327.846 113.18 L 327.846 113.18 Q 329.232 113.84 330.123 114.874 L 330.123 114.874 L 330.123 114.874 Q 331.014 115.908 331.41 117.052 L 331.41 117.052 L 328.704 117.58 L 328.704 117.58 Q 328.242 116.37 327.208 115.589 L 327.208 115.589 L 327.208 115.589 Q 326.174 114.808 324.7 114.808 L 324.7 114.808 L 324.7 114.808 Q 322.544 114.808 321.279 116.348 L 321.279 116.348 L 321.279 116.348 Q 320.014 117.888 320.014 120.704 L 320.014 120.704 L 320.014 120.704 Q 320.014 123.542 321.279 125.093 L 321.279 125.093 L 321.279 125.093 Q 322.544 126.644 324.7 126.644 L 324.7 126.644 L 324.7 126.644 Q 326.438 126.644 327.472 125.621 L 327.472 125.621 L 327.472 125.621 Q 328.506 124.598 328.88 123.014 L 328.88 123.014 L 331.674 123.388 L 331.674 123.388 Z  M 348.116 115.248 L 342.924 115.248 L 342.924 128.58 L 340.152 128.58 L 340.152 115.248 L 334.96 115.248 L 334.96 112.872 L 348.116 112.872 L 348.116 115.248 L 348.116 115.248 Z  M 352.436 128.58 L 352.436 112.872 L 355.208 112.872 L 355.208 128.58 L 352.436 128.58 L 352.436 128.58 Z  M 373.388 128.58 L 370.374 128.58 L 362.806 116.7 L 362.718 116.7 L 362.718 128.58 L 360.144 128.58 L 360.144 112.872 L 363.268 112.872 L 370.726 124.554 L 370.814 124.554 L 370.814 112.872 L 373.388 112.872 L 373.388 128.58 L 373.388 128.58 Z  M 392.514 128.58 L 390.402 128.58 L 390.402 126.71 L 390.402 126.71 Q 389.632 127.766 388.422 128.349 L 388.422 128.349 L 388.422 128.349 Q 387.212 128.932 385.584 128.932 L 385.584 128.932 L 385.584 128.932 Q 383.362 128.932 381.646 127.909 L 381.646 127.909 L 381.646 127.909 Q 379.93 126.886 378.962 125.016 L 378.962 125.016 L 378.962 125.016 Q 377.994 123.146 377.994 120.704 L 377.994 120.704 L 377.994 120.704 Q 377.994 118.284 378.962 116.425 L 378.962 116.425 L 378.962 116.425 Q 379.93 114.566 381.646 113.543 L 381.646 113.543 L 381.646 113.543 Q 383.362 112.52 385.584 112.52 L 385.584 112.52 L 385.584 112.52 Q 388.07 112.52 389.918 113.807 L 389.918 113.807 L 389.918 113.807 Q 391.766 115.094 392.514 117.294 L 392.514 117.294 L 389.742 117.624 L 389.742 117.624 Q 389.17 116.26 388.125 115.534 L 388.125 115.534 L 388.125 115.534 Q 387.08 114.808 385.584 114.808 L 385.584 114.808 L 385.584 114.808 Q 383.384 114.808 382.097 116.37 L 382.097 116.37 L 382.097 116.37 Q 380.81 117.932 380.81 120.704 L 380.81 120.704 L 380.81 120.704 Q 380.81 123.498 382.097 125.071 L 382.097 125.071 L 382.097 125.071 Q 383.384 126.644 385.584 126.644 L 385.584 126.644 L 385.584 126.644 Q 386.86 126.644 387.839 126.105 L 387.839 126.105 L 387.839 126.105 Q 388.818 125.566 389.368 124.675 L 389.368 124.675 L 389.368 124.675 Q 389.918 123.784 389.984 122.728 L 389.984 122.728 L 385.848 122.728 L 385.848 120.506 L 392.514 120.506 L 392.514 128.58 L 392.514 128.58 Z  M 400.442 127.898 L 400.442 127.898 Q 400.442 131.748 397.516 131.814 L 397.516 131.814 L 397.516 130.472 L 397.516 130.472 Q 398.154 130.428 398.44 129.977 L 398.44 129.977 L 398.44 129.977 Q 398.726 129.526 398.726 128.58 L 398.726 128.58 L 397.406 128.58 L 397.406 125.588 L 400.442 125.588 L 400.442 127.898 L 400.442 127.898 Z  M 45.626 119.384 L 53.612 119.384 L 53.612 121.606 L 45.626 121.606 L 45.626 126.248 L 53.986 126.248 L 53.986 128.58 L 42.832 128.58 L 42.832 112.872 L 53.986 112.872 L 53.986 115.138 L 45.626 115.138 L 45.626 119.384 L 45.626 119.384 Z  M 58.548 128.58 L 58.548 112.872 L 61.342 112.872 L 61.342 126.204 L 69.79 126.204 L 69.79 128.58 L 58.548 128.58 L 58.548 128.58 Z  M 76.882 119.384 L 84.868 119.384 L 84.868 121.606 L 76.882 121.606 L 76.882 126.248 L 85.242 126.248 L 85.242 128.58 L 74.088 128.58 L 74.088 112.872 L 85.242 112.872 L 85.242 115.138 L 76.882 115.138 L 76.882 119.384 L 76.882 119.384 Z  M 103.972 123.388 L 103.972 123.388 Q 103.686 124.818 102.795 126.083 L 102.795 126.083 L 102.795 126.083 Q 101.904 127.348 100.43 128.14 L 100.43 128.14 L 100.43 128.14 Q 98.956 128.932 96.998 128.932 L 96.998 128.932 L 96.998 128.932 Q 94.798 128.932 93.093 127.931 L 93.093 127.931 L 93.093 127.931 Q 91.388 126.93 90.442 125.071 L 90.442 125.071 L 90.442 125.071 Q 89.496 123.212 89.496 120.704 L 89.496 120.704 L 89.496 120.704 Q 89.496 118.218 90.442 116.359 L 90.442 116.359 L 90.442 116.359 Q 91.388 114.5 93.093 113.51 L 93.093 113.51 L 93.093 113.51 Q 94.798 112.52 96.998 112.52 L 96.998 112.52 L 96.998 112.52 Q 98.758 112.52 100.144 113.18 L 100.144 113.18 L 100.144 113.18 Q 101.53 113.84 102.421 114.874 L 102.421 114.874 L 102.421 114.874 Q 103.312 115.908 103.708 117.052 L 103.708 117.052 L 101.002 117.58 L 101.002 117.58 Q 100.54 116.37 99.506 115.589 L 99.506 115.589 L 99.506 115.589 Q 98.472 114.808 96.998 114.808 L 96.998 114.808 L 96.998 114.808 Q 94.842 114.808 93.577 116.348 L 93.577 116.348 L 93.577 116.348 Q 92.312 117.888 92.312 120.704 L 92.312 120.704 L 92.312 120.704 Q 92.312 123.542 93.577 125.093 L 93.577 125.093 L 93.577 125.093 Q 94.842 126.644 96.998 126.644 L 96.998 126.644 L 96.998 126.644 Q 98.736 126.644 99.77 125.621 L 99.77 125.621 L 99.77 125.621 Q 100.804 124.598 101.178 123.014 L 101.178 123.014 L 103.972 123.388 L 103.972 123.388 Z  M 120.414 115.248 L 115.222 115.248 L 115.222 128.58 L 112.45 128.58 L 112.45 115.248 L 107.258 115.248 L 107.258 112.872 L 120.414 112.872 L 120.414 115.248 L 120.414 115.248 Z  M 134.722 128.58 L 131.114 122.574 L 127.462 122.574 L 127.462 128.58 L 124.69 128.58 L 124.69 112.872 L 132.148 112.872 L 132.148 112.872 Q 134.766 112.872 136.229 114.17 L 136.229 114.17 L 136.229 114.17 Q 137.692 115.468 137.692 117.712 L 137.692 117.712 L 137.692 117.712 Q 137.692 119.494 136.768 120.704 L 136.768 120.704 L 136.768 120.704 Q 135.844 121.914 134.106 122.354 L 134.106 122.354 L 137.956 128.58 L 134.722 128.58 L 134.722 128.58 Z  M 127.462 120.308 L 131.752 120.308 L 131.752 120.308 Q 133.27 120.308 134.062 119.637 L 134.062 119.637 L 134.062 119.637 Q 134.854 118.966 134.854 117.712 L 134.854 117.712 L 134.854 117.712 Q 134.854 116.48 134.062 115.809 L 134.062 115.809 L 134.062 115.809 Q 133.27 115.138 131.752 115.138 L 131.752 115.138 L 127.462 115.138 L 127.462 120.308 L 127.462 120.308 Z  M 142.254 128.58 L 142.254 112.872 L 145.026 112.872 L 145.026 128.58 L 142.254 128.58 L 142.254 128.58 Z  M 164.152 123.388 L 164.152 123.388 Q 163.866 124.818 162.975 126.083 L 162.975 126.083 L 162.975 126.083 Q 162.084 127.348 160.61 128.14 L 160.61 128.14 L 160.61 128.14 Q 159.136 128.932 157.178 128.932 L 157.178 128.932 L 157.178 128.932 Q 154.978 128.932 153.273 127.931 L 153.273 127.931 L 153.273 127.931 Q 151.568 126.93 150.622 125.071 L 150.622 125.071 L 150.622 125.071 Q 149.676 123.212 149.676 120.704 L 149.676 120.704 L 149.676 120.704 Q 149.676 118.218 150.622 116.359 L 150.622 116.359 L 150.622 116.359 Q 151.568 114.5 153.273 113.51 L 153.273 113.51 L 153.273 113.51 Q 154.978 112.52 157.178 112.52 L 157.178 112.52 L 157.178 112.52 Q 158.938 112.52 160.324 113.18 L 160.324 113.18 L 160.324 113.18 Q 161.71 113.84 162.601 114.874 L 162.601 114.874 L 162.601 114.874 Q 163.492 115.908 163.888 117.052 L 163.888 117.052 L 161.182 117.58 L 161.182 117.58 Q 160.72 116.37 159.686 115.589 L 159.686 115.589 L 159.686 115.589 Q 158.652 114.808 157.178 114.808 L 157.178 114.808 L 157.178 114.808 Q 155.022 114.808 153.757 116.348 L 153.757 116.348 L 153.757 116.348 Q 152.492 117.888 152.492 120.704 L 152.492 120.704 L 152.492 120.704 Q 152.492 123.542 153.757 125.093 L 153.757 125.093 L 153.757 125.093 Q 155.022 126.644 157.178 126.644 L 157.178 126.644 L 157.178 126.644 Q 158.916 126.644 159.95 125.621 L 159.95 125.621 L 159.95 125.621 Q 160.984 124.598 161.358 123.014 L 161.358 123.014 L 164.152 123.388 L 164.152 123.388 Z  M 178.284 124.554 L 171.508 124.554 L 170.056 128.58 L 167.086 128.58 L 173.114 112.872 L 176.7 112.872 L 182.728 128.58 L 179.736 128.58 L 178.284 124.554 L 178.284 124.554 Z  M 177.47 122.332 L 174.918 115.314 L 174.83 115.314 L 172.3 122.332 L 177.47 122.332 L 177.47 122.332 Z  M 186.74 128.58 L 186.74 112.872 L 189.534 112.872 L 189.534 126.204 L 197.982 126.204 L 197.982 128.58 L 186.74 128.58 L 186.74 128.58 Z " fill="rgb(255,255,255)"/></svg>